<svg width="100" height="100" viewBox="0 0 100 100" fill="none" xmlns="http://www.w3.org/2000/svg"><path d="M43.75 6.25h3.125v12.5H43.75V6.25Z" fill="url(#a)"/><path d="M53.125 6.25h3.125v12.5h-3.125V6.25Z" fill="url(#b)"/><path d="M65.625 21.875V0h-31.25v21.875h-6.25V100h43.75V21.875h-6.25ZM37.5 3.125h25v18.75h-25V3.125Zm31.25 93.75h-37.5V25h37.5v71.875Z" fill="url(#c)"/><path d="M37.5 62.212v9.13l10.937 4.688v5.508a4.688 4.688 0 1 0 3.125 0V70.213L62.5 60.056v-6.931h3.125V43.75H56.25v9.375h3.125v5.567l-7.813 7.256V37.11l3.058 3.058 2.21-2.21-6.83-6.83-6.83 6.83 2.21 2.21 3.057-3.058v35.522l-7.812-3.349v-7.07a4.687 4.687 0 1 0-3.125 0Zm21.875-15.337H62.5V50h-3.125v-3.125ZM50 84.375a1.563 1.563 0 1 1 0 3.125 1.563 1.563 0 0 1 0-3.125ZM39.062 56.25a1.563 1.563 0 1 1 0 3.125 1.563 1.563 0 0 1 0-3.125Z" fill="url(#d)"/><defs><linearGradient id="a" x1="44.069" y1="6.25" x2="46.779" y2="6.3" gradientUnits="userSpaceOnUse"><stop stop-color="#C89AFC"/><stop offset="1" stop-color="#7C6AFA"/></linearGradient><linearGradient id="b" x1="53.444" y1="6.25" x2="56.154" y2="6.3" gradientUnits="userSpaceOnUse"><stop stop-color="#C89AFC"/><stop offset="1" stop-color="#7C6AFA"/></linearGradient><linearGradient id="c" x1="32.597" y1="0" x2="70.503" y2="1.236" gradientUnits="userSpaceOnUse"><stop stop-color="#C89AFC"/><stop offset="1" stop-color="#7C6AFA"/></linearGradient><linearGradient id="d" x1="37.568" y1="31.128" x2="64.632" y2="32.187" gradientUnits="userSpaceOnUse"><stop stop-color="#C89AFC"/><stop offset="1" stop-color="#7C6AFA"/></linearGradient></defs></svg>