<svg width="100" height="100" viewBox="0 0 100 100" fill="none" xmlns="http://www.w3.org/2000/svg"><path d="M9.375 20.313H6.25V12.5h7.813v3.125H9.375v4.688Z" fill="url(#a)"/><path d="M65.625 81.25H62.5v-3.125h3.125v3.125Zm-6.25 0H56.25v-3.125h3.125v3.125Zm-6.25 0H50v-3.125h3.125v3.125Zm-6.25 0H43.75v-3.125h3.125v3.125Zm-6.25 0H37.5v-3.125h3.125v3.125Zm-6.25 0H31.25v-3.125h3.125v3.125Zm-6.25 0H25v-3.125h3.125v3.125Zm-6.25 0H18.75v-3.125h3.125v3.125Zm-6.25 0H12.5v-3.125h3.125v3.125Zm-6.25 0H6.25v-3.125h3.125v3.125Z" fill="url(#b)"/><path d="M65.625 87.5H62.5v-3.125h3.125V87.5Zm-6.25 0H56.25v-3.125h3.125V87.5Zm-6.25 0H50v-3.125h3.125V87.5Zm-6.25 0H43.75v-3.125h3.125V87.5Zm-6.25 0H37.5v-3.125h3.125V87.5Zm-6.25 0H31.25v-3.125h3.125V87.5Zm-6.25 0H25v-3.125h3.125V87.5Zm-6.25 0H18.75v-3.125h3.125V87.5Zm-6.25 0H12.5v-3.125h3.125V87.5Zm-6.25 0H6.25v-3.125h3.125V87.5Z" fill="url(#c)"/><path d="M81.25 12.5h12.5v3.125h-12.5V12.5Z" fill="url(#d)"/><path d="M81.25 18.75h12.5v3.125h-12.5V18.75Z" fill="url(#e)"/><path d="M81.25 25h12.5v3.125h-12.5V25Z" fill="url(#f)"/><path d="M65.625 34.375h-7.813V31.25H62.5v-4.688h3.125v7.813Z" fill="url(#g)"/><path d="M95.313 6.25H79.686A4.688 4.688 0 0 0 75 10.938v54.687h25V10.937a4.688 4.688 0 0 0-4.688-4.687Zm1.562 56.25h-18.75V10.937c0-.862.7-1.562 1.563-1.562h15.624c.863 0 1.563.7 1.563 1.563V62.5Z" fill="url(#h)"/><path d="M67.188 71.875h-62.5A4.688 4.688 0 0 0 0 76.563v12.5a4.688 4.688 0 0 0 4.688 4.687h62.5a4.688 4.688 0 0 0 4.687-4.688v-12.5a4.688 4.688 0 0 0-4.688-4.687Zm1.562 17.188c0 .862-.7 1.562-1.563 1.562h-62.5c-.862 0-1.562-.7-1.562-1.563v-12.5c0-.862.7-1.562 1.563-1.562h62.5c.862 0 1.562.7 1.562 1.563v12.5Z" fill="url(#i)"/><path d="M85.938 71.875a7.822 7.822 0 0 0-7.813 7.813v6.25a7.813 7.813 0 0 0 15.625 0v-6.25a7.822 7.822 0 0 0-7.813-7.813Zm4.687 14.063a4.688 4.688 0 0 1-9.375 0v-6.25a4.688 4.688 0 0 1 3.125-4.4v5.962H87.5v-5.962a4.688 4.688 0 0 1 3.125 4.4v6.25Z" fill="url(#j)"/><path d="M67.188 6.25h-62.5A4.688 4.688 0 0 0 0 10.938v37.5a4.688 4.688 0 0 0 4.688 4.687h21.875v6.51a2.867 2.867 0 0 1-2.865 2.865H18.75v3.125H50V62.5h-4.948a2.867 2.867 0 0 1-2.864-2.864v-6.511h25a4.688 4.688 0 0 0 4.687-4.688v-37.5a4.688 4.688 0 0 0-4.688-4.687ZM28.956 62.5c.48-.878.732-1.863.73-2.864v-6.511h3.125v6.64h3.126v-6.64h3.124v6.51a5.946 5.946 0 0 0 .731 2.865H28.957ZM68.75 48.437c0 .863-.7 1.563-1.563 1.563h-62.5c-.862 0-1.562-.7-1.562-1.563v-7.812H68.75v7.813Zm0-10.937H3.125V10.937c0-.862.7-1.562 1.563-1.562h62.5c.862 0 1.562.7 1.562 1.563V37.5Z" fill="url(#k)"/><path d="M89.062 47.097V43.75h-3.125v3.347a6.25 6.25 0 1 0 3.125 0ZM87.5 56.25a3.115 3.115 0 0 1-1.563-5.816v2.691h3.125v-2.69A3.117 3.117 0 0 1 87.5 56.25Z" fill="url(#l)"/><path d="M32.813 43.75h3.124v3.125h-3.124V43.75Z" fill="url(#m)"/><defs><linearGradient id="a" x1="7.049" y1="12.5" x2="13.787" y2="13.002" gradientUnits="userSpaceOnUse"><stop stop-color="#C89AFC"/><stop offset="1" stop-color="#7C6AFA"/></linearGradient><linearGradient id="b" x1="12.319" y1="78.125" x2="29.453" y2="102.391" gradientUnits="userSpaceOnUse"><stop stop-color="#C89AFC"/><stop offset="1" stop-color="#7C6AFA"/></linearGradient><linearGradient id="c" x1="12.319" y1="84.375" x2="29.453" y2="108.641" gradientUnits="userSpaceOnUse"><stop stop-color="#C89AFC"/><stop offset="1" stop-color="#7C6AFA"/></linearGradient><linearGradient id="d" x1="82.528" y1="12.5" x2="92.484" y2="15.469" gradientUnits="userSpaceOnUse"><stop stop-color="#C89AFC"/><stop offset="1" stop-color="#7C6AFA"/></linearGradient><linearGradient id="e" x1="82.528" y1="18.75" x2="92.484" y2="21.719" gradientUnits="userSpaceOnUse"><stop stop-color="#C89AFC"/><stop offset="1" stop-color="#7C6AFA"/></linearGradient><linearGradient id="f" x1="82.528" y1="25" x2="92.484" y2="27.969" gradientUnits="userSpaceOnUse"><stop stop-color="#C89AFC"/><stop offset="1" stop-color="#7C6AFA"/></linearGradient><linearGradient id="g" x1="58.611" y1="26.563" x2="65.35" y2="27.065" gradientUnits="userSpaceOnUse"><stop stop-color="#C89AFC"/><stop offset="1" stop-color="#7C6AFA"/></linearGradient><linearGradient id="h" x1="77.555" y1="6.25" x2="99.218" y2="6.93" gradientUnits="userSpaceOnUse"><stop stop-color="#C89AFC"/><stop offset="1" stop-color="#7C6AFA"/></linearGradient><linearGradient id="i" x1="7.346" y1="71.875" x2="66.16" y2="86.279" gradientUnits="userSpaceOnUse"><stop stop-color="#C89AFC"/><stop offset="1" stop-color="#7C6AFA"/></linearGradient><linearGradient id="j" x1="79.722" y1="71.875" x2="93.236" y2="72.594" gradientUnits="userSpaceOnUse"><stop stop-color="#C89AFC"/><stop offset="1" stop-color="#7C6AFA"/></linearGradient><linearGradient id="k" x1="7.346" y1="6.25" x2="69.184" y2="11.83" gradientUnits="userSpaceOnUse"><stop stop-color="#C89AFC"/><stop offset="1" stop-color="#7C6AFA"/></linearGradient><linearGradient id="l" x1="82.527" y1="43.75" x2="93.332" y2="44.393" gradientUnits="userSpaceOnUse"><stop stop-color="#C89AFC"/><stop offset="1" stop-color="#7C6AFA"/></linearGradient><linearGradient id="m" x1="33.132" y1="43.75" x2="35.827" y2="43.951" gradientUnits="userSpaceOnUse"><stop stop-color="#C89AFC"/><stop offset="1" stop-color="#7C6AFA"/></linearGradient></defs></svg>